<svg xmlns="http://www.w3.org/2000/svg" viewBox="0 0 189.59 112.98"><defs><style>.cls-1{fill:#1d1d1b;}.cls-2{fill:#00983a;}</style></defs><title>logo</title><g id="Calque_4" data-name="Calque 4"><path class="cls-1" d="M352.07,229.4V200h.63l19.53,22.48V200h2.89V229.4h-.67l-19.33-22.21V229.4Z" transform="translate(-352.07 -162.99)"/><path class="cls-1" d="M391.37,209.57l-1.78,1.86a6.49,6.49,0,0,0-4.38-2.18,3.32,3.32,0,0,0-2.33.89,2.78,2.78,0,0,0-1,2.12,3,3,0,0,0,.81,2,10.42,10.42,0,0,0,3.35,2.32,12.35,12.35,0,0,1,4.24,3.11,5.8,5.8,0,0,1,1.08,3.43,6.07,6.07,0,0,1-1.87,4.5,6.37,6.37,0,0,1-4.68,1.85,8.33,8.33,0,0,1-3.6-.8,7.42,7.42,0,0,1-2.82-2.25l1.76-2a6.09,6.09,0,0,0,4.54,2.42,4,4,0,0,0,2.84-1.08,3.31,3.31,0,0,0,1.18-2.52,3.27,3.27,0,0,0-.77-2.14,12.48,12.48,0,0,0-3.51-2.34,10.72,10.72,0,0,1-4-3,5.59,5.59,0,0,1-1.07-3.37,5.48,5.48,0,0,1,1.7-4.11,5.84,5.84,0,0,1,4.24-1.63Q388.33,206.64,391.37,209.57Z" transform="translate(-352.07 -162.99)"/><path class="cls-1" d="M395.94,198.77a2.24,2.24,0,0,1,1.63.68,2.19,2.19,0,0,1,.69,1.62,2.31,2.31,0,0,1-3.95,1.64,2.29,2.29,0,0,1-.67-1.64,2.24,2.24,0,0,1,.67-1.62A2.22,2.22,0,0,1,395.94,198.77Zm-1.39,8.94h2.79v21.73h-2.79Z" transform="translate(-352.07 -162.99)"/><path class="cls-1" d="M423.32,224.5a20.23,20.23,0,0,1-.81,6.7,8.62,8.62,0,0,1-3.82,4.6,12.51,12.51,0,0,1-6.52,1.62,15.09,15.09,0,0,1-5-.79,10.33,10.33,0,0,1-3.63-2.12,12.37,12.37,0,0,1-2.57-3.89h3a8,8,0,0,0,3.2,3.19,10.28,10.28,0,0,0,4.86,1,9.9,9.9,0,0,0,4.82-1.07,6.43,6.43,0,0,0,2.8-2.67,11.93,11.93,0,0,0,.84-5.21v-1.11a10.49,10.49,0,0,1-3.86,3.07,11.39,11.39,0,0,1-10.45-.42,10.36,10.36,0,0,1-4.08-4,10.94,10.94,0,0,1-1.44-5.53,11.08,11.08,0,0,1,1.5-5.62,11.36,11.36,0,0,1,9.71-5.63,12.65,12.65,0,0,1,4.46.75,16.22,16.22,0,0,1,4,2.36q1.94,1.6,3.05,6.12Q423.31,216.46,423.32,224.5Zm-11.09-15.17a8.74,8.74,0,0,0-4.41,1.15,8.37,8.37,0,0,0-3.19,3.17,8.7,8.7,0,0,0-1.16,4.38,7.91,7.91,0,0,0,2.4,5.92,9.44,9.44,0,0,0,12.42,0,8.21,8.21,0,0,0,2.34-6.1,8.78,8.78,0,0,0-1.08-4.38,8,8,0,0,0-3.05-3A8.49,8.49,0,0,0,412.23,209.33Z" transform="translate(-352.07 -162.99)"/><path class="cls-1" d="M427.88,221v-3.47c.24-3,.86-5.12,1.87-6.5a9.19,9.19,0,0,1,3.26-3,7.47,7.47,0,0,1,3.79-.91,9.28,9.28,0,0,1,3.21.6,6.05,6.05,0,0,1,2.51,1.58,11.94,11.94,0,0,1,1.8,3,10.38,10.38,0,0,1,2.08-3,11.57,11.57,0,0,1,2-1.29,11.35,11.35,0,0,1,3.87-.89,9,9,0,0,1,4.33,1.13,6.22,6.22,0,0,1,2.92,3.18,16.69,16.69,0,0,1,.85,6.11v11.87h-2.86V217.57a15.56,15.56,0,0,0-.49-4.79,4.33,4.33,0,0,0-1.7-2.11,5.13,5.13,0,0,0-2.92-.8,7.44,7.44,0,0,0-5.48,3.11q-.9,1.23-1.35,5.44v11h-2.79V218.3q0-3.92-.87-5.33a7.45,7.45,0,0,0-2.08-2.26,5.16,5.16,0,0,0-3-.84,5.61,5.61,0,0,0-3.34,1,6.44,6.44,0,0,0-2.19,3,16.87,16.87,0,0,0-.63,6.4v9.22h-2.78Z" transform="translate(-352.07 -162.99)"/><path class="cls-2" d="M475.15,206.64a10.81,10.81,0,0,1,8.32,3.62,11.24,11.24,0,0,1,3,7.87q0,11.25,0,11.42h-2.95v-4.93q-2.32,4.32-8.42,4.83a10.64,10.64,0,0,1-8.15-3.39,11.66,11.66,0,0,1-.17-15.78A10.76,10.76,0,0,1,475.15,206.64Zm0,2.73a8,8,0,0,0-6,2.58,8.58,8.58,0,0,0-2.5,6.22A8.84,8.84,0,0,0,468,222.7a9.81,9.81,0,0,0,4.33,3.68q7.63,1.71,10.87-6.95a14.92,14.92,0,0,0-.59-5.31,8.59,8.59,0,0,0-1.53-2.17A7.81,7.81,0,0,0,475.15,209.37Z" transform="translate(-352.07 -162.99)"/><path class="cls-1" d="M474,276a56.78,56.78,0,0,1-48.87-28.08l2.34-1.37a53.84,53.84,0,0,0,98.22-12l2.6.76A56.8,56.8,0,0,1,474,276Z" transform="translate(-352.07 -162.99)"/><polygon class="cls-1" points="77.71 84.64 70.48 76.44 72.64 87.16 77.71 84.64"/><path class="cls-2" d="M474.32,254.07a35.06,35.06,0,0,1-24.19-9.64l2.32-2.45a31.82,31.82,0,1,0-4.54-40.88l-2.8-1.89a35.2,35.2,0,1,1,29.21,54.86Z" transform="translate(-352.07 -162.99)"/><polygon class="cls-2" points="102.87 79.79 93.58 73.22 98.34 83.56 102.87 79.79"/><rect class="cls-2" x="122.25" y="20.67" width="58.35" height="3.38"/><polygon class="cls-2" points="178.59 25.3 189.59 22.36 178.59 19.41 178.59 25.3"/><path class="cls-2" d="M393.2,253.18a4,4,0,0,1-1.53-1.31l1-1.2a3,3,0,0,0,2.57,1.46,1.94,1.94,0,0,0,1.57-.63,2.79,2.79,0,0,0,.54-1.86v-6.91h-4.45V241.2h6.19v8.35a4.32,4.32,0,0,1-1,3.07,3.78,3.78,0,0,1-2.87,1A4.64,4.64,0,0,1,393.2,253.18Z" transform="translate(-352.07 -162.99)"/><path class="cls-2" d="M401.29,253.27a1.21,1.21,0,0,1,.84-2.07,1.13,1.13,0,0,1,.83.33,1.19,1.19,0,0,1,.33.87,1.18,1.18,0,0,1-.34.87,1.15,1.15,0,0,1-.82.34A1.18,1.18,0,0,1,401.29,253.27Z" transform="translate(-352.07 -162.99)"/><path class="cls-2" d="M414.31,252v1.53h-8.93V241.2h8.69v1.53h-6.93v3.78h6.17V248h-6.17v4Z" transform="translate(-352.07 -162.99)"/><path class="cls-2" d="M416.07,253.27a1.24,1.24,0,0,1,0-1.73,1.17,1.17,0,0,1,.84-.34,1.13,1.13,0,0,1,.83.33,1.19,1.19,0,0,1,.33.87,1.18,1.18,0,0,1-.34.87,1.15,1.15,0,0,1-.82.34A1.21,1.21,0,0,1,416.07,253.27Z" transform="translate(-352.07 -162.99)"/><polygon class="cls-1" points="172.34 41.05 177.1 50.89 177.9 39.99 172.34 41.05"/><path class="cls-1" d="M515.75,181.1a56.54,56.54,0,0,0-95.19,20.78l2.57.85A53.84,53.84,0,0,1,512,181.1Z" transform="translate(-352.07 -162.99)"/><path class="cls-1" d="M522.26,189.6H519a53.65,53.65,0,0,1,7.29,16.13l2.61-.69A56.42,56.42,0,0,0,522.26,189.6Z" transform="translate(-352.07 -162.99)"/></g></svg>